PathFileType	3	(X/Y/Z)	D:\ViconData\Biomechanics course\HT2024\Leo31oct\Walk_Norm15.trc
DataRate	CameraRate	NumFrames	NumMarkers	Units	OrigDataRate	OrigDataStartFrame	OrigNumFrames
100.0	100.0	5	53	mm	100.0	212	210	
Frame#	Time	LFHD			RFHD			LBHD			RBHD			C7			T10			CLAV			STRN			RBAK			LSHO			LUPA			LELB			LFRM			LWRA			LWRB			LFIN			RSHO			RUPA			RELB			RFRM			RWRA			RWRB			RFIN			LASI			RASI			LPSI			RPSI			LTHI			LTHAP			LTHAD			LKNE			LKNM			LTIB			LTIAP			LTIAD			LANK			LMED			LHEE			LTOE			RTHI			RTHAP			RTHAD			RKNE			RKNM			RTIB			RTIAP			RTIAD			RANK			RMED			RHEE			RTOE			LPel			RPel			
		X1	Y1	Z1	X2	Y2	Z2	X3	Y3	Z3	X4	Y4	Z4	X5	Y5	Z5	X6	Y6	Z6	X7	Y7	Z7	X8	Y8	Z8	X9	Y9	Z9	X10	Y10	Z10	X11	Y11	Z11	X12	Y12	Z12	X13	Y13	Z13	X14	Y14	Z14	X15	Y15	Z15	X16	Y16	Z16	X17	Y17	Z17	X18	Y18	Z18	X19	Y19	Z19	X20	Y20	Z20	X21	Y21	Z21	X22	Y22	Z22	X23	Y23	Z23	X24	Y24	Z24	X25	Y25	Z25	X26	Y26	Z26	X27	Y27	Z27	X28	Y28	Z28	X29	Y29	Z29	X30	Y30	Z30	X31	Y31	Z31	X32	Y32	Z32	X33	Y33	Z33	X34	Y34	Z34	X35	Y35	Z35	X36	Y36	Z36	X37	Y37	Z37	X38	Y38	Z38	X39	Y39	Z39	X40	Y40	Z40	X41	Y41	Z41	X42	Y42	Z42	X43	Y43	Z43	X44	Y44	Z44	X45	Y45	Z45	X46	Y46	Z46	X47	Y47	Z47	X48	Y48	Z48	X49	Y49	Z49	X50	Y50	Z50	X51	Y51	Z51	X52	Y52	Z52	X53	Y53	Z53	
212	2.11	139.51974	1684.4081	-392.53827	255.56755	1689.9908	-386.68796				264.44745	1697.1727	-532.08832	195.98091	1550.8389	-326.66019	201.03148	1317.7274	-252.39658	209.39505	1470.9138	-449.08533	218.68864	1278.7428	-487.82324	280.31122	1443.9093	-260.55728	41.953117	1501.5941	-409.42429	-51.579926	1219.869	-440.8042	-60.361324	1141.324	-453.50586	-55.072121	1029.1523	-509.78601	15.086699	919.26526	-605.66455	-24.665785	889.63556	-557.80963	-7.9316397	838.46838	-651.25677	361.90732	1504.7346	-380.67746	460.13101	1249.5292	-310.40402	475.06116	1169.3601	-287.89362	487.96909	1032.3553	-326.93448	461.00494	883.30261	-307.82819	441.44495	876.31818	-375.87097	474.0105	793.44714	-375.81143	95.389305	1039.2407	-445.71283	335.79068	1041.8319	-440.25995	169.49542	1066.0916	-254.4657	253.60727	1064.1216	-252.5231	68.328033	649.62695	-335.37131	135.65131	701.04272	-447.20282	141.40381	586.35291	-416.20203	83.201637	508.26328	-312.9938				111.53918	242.33501	-251.09988	130.9586	400.6868	-343.6098	156.53159	187.03352	-286.00833	150.72849	84.134369	-227.87694				192.79565	64.414177	-161.45586	177.23767	50.526901	-319.09103	373.03485	636.35956	-511.89804	304.01434	754.05664	-567.50195	305.05722	672.83618	-597.96826	359.11115	537.29156	-534.97668				350.38974	266.53439	-467.42047	326.33676	456.30981	-583.25903	318.67783	256.86194	-525.62555	326.93826	128.98082	-445.44806				271.57159	97.451302	-395.80042	325.26553	67.96981	-542.71783	56.064075	1066.6377	-359.25574	360.54819	1065.9271	-308.49725
213	2.12	139.56827	1683.2539	-404.92221	255.59019	1688.7102	-398.91977				264.67749	1695.9052	-544.31024	195.97086	1549.7051	-338.96979	200.91948	1316.6588	-264.38757	209.353	1469.6531	-461.36926	218.51109	1277.3931	-499.61215	280.17297	1442.7391	-272.87625	42.10997	1500.4865	-421.74655	-50.996513	1219.5415	-457.92877	-59.625565	1141.2496	-472.64914	-53.295696	1030.8005	-532.29871	17.898567	924.7373	-631.50879	-21.510822	893.20483	-584.57153	-4.6211166	845.46234	-679.83917	361.90344	1503.4307	-393.09265	459.58484	1248.453	-321.39917	474.31335	1168.3818	-298.40048	487.37558	1031.1885	-336.57993	460.16623	882.29761	-316.70593	441.05524	874.90735	-384.80771	473.88123	792.09503	-384.07593	94.604568	1038.3796	-457.04593	335.13229	1040.9041	-453.44031	170.45058	1064.7614	-266.42087	254.53162	1062.7533	-265.07858	67.554947	649.68787	-341.09567	134.86133	699.79987	-454.5618	140.58443	585.16187	-421.99057	82.670479	508.50159	-317.00662				111.24413	243.04842	-252.55043	130.42299	400.61227	-346.60196	156.15439	187.45648	-287.20844	150.65985	84.897148	-228.21404				192.77107	65.676338	-161.75479	177.13786	50.714428	-319.25934	372.87292	635.20233	-524.95428	303.07715	753.00684	-580.23431	304.10071	672.05457	-610.61786	359.37292	535.82764	-549.44727				351.11362	260.90091	-498.37762	325.90585	457.14474	-601.30835	318.66052	254.90358	-556.47467	327.66641	122.30276	-485.20041				272.96606	87.818001	-436.79062	324.59366	67.448799	-585.98706	56.155479	1065.6686	-370.08807	361.0321	1064.6584	-321.8479
214	2.13	139.64499	1681.9121	-417.39145	255.64253	1687.2579	-411.24966				264.91565	1694.462	-556.63171	196.01456	1548.3977	-351.37177	200.89684	1315.4203	-276.44391	209.34253	1468.2025	-473.74207	218.3548	1275.8492	-511.47122	280.11349	1441.4042	-285.28766	42.309795	1499.1735	-434.12982	-50.39304	1219.0977	-474.89212	-58.881123	1141.0931	-491.57007	-51.477615	1032.4668	-554.49841	20.782328	930.34772	-656.88141	-18.264891	896.94489	-610.92426	-1.168539	852.63055	-707.84583	361.9411	1501.9515	-405.62488	459.09946	1247.1746	-332.62875	473.63443	1167.1981	-309.16483	486.82159	1029.8232	-346.48276	459.38281	881.09869	-325.83939	440.6741	873.2984	-393.9819	473.74405	790.54193	-392.60413	93.869469	1037.3827	-468.45242	334.53271	1039.7522	-466.71933	171.45624	1063.2393	-278.4671	255.50676	1061.1777	-277.72925	66.793648	649.72949	-347.01138	134.08102	698.54364	-461.9603	139.7951	583.98328	-427.94794	82.174591	508.72195	-321.27209				110.96341	243.79036	-254.13826	129.90962	400.50632	-349.80811	155.79318	187.87906	-288.48822	150.60335	85.717232	-228.58978				192.76332	67.023842	-162.09375	177.04164	50.897457	-319.40915	372.82355	633.46277	-537.35583	302.35468	751.18304	-592.56744	303.48141	670.42444	-622.61078	359.70578	533.94653	-563.51331				351.82834	255.85422	-529.22064	325.4057	457.70901	-618.82635	318.41873	253.46869	-586.79059	328.25024	116.68765	-524.77118				274.37564	79.447556	-477.53299	323.181	67.981804	-628.70349	56.303955	1064.5515	-381.01837	361.56628	1063.1505	-335.28195
215	2.14	139.75812	1680.3997	-429.95279	255.73318	1685.6503	-423.68613				265.1691	1692.8602	-569.06104	196.11673	1546.9321	-363.87421	200.9624	1314.0253	-288.57812	209.37132	1466.5791	-486.21228	218.22905	1274.1295	-523.41913	280.13416	1439.9183	-297.79874	42.558044	1497.6718	-446.5853	-49.775291	1218.5388	-491.68591	-58.136734	1140.8502	-510.25104	-49.627098	1034.1387	-576.3587	23.729767	936.07025	-681.74121	-14.939067	900.83441	-636.82751	2.4143939	859.94391	-735.23688	362.02606	1500.3118	-418.27585	458.685	1245.7063	-344.10129	473.03543	1165.821	-320.19809	486.31076	1028.2711	-356.65732	458.66013	879.71686	-335.23947	440.29443	871.50293	-403.40179	473.58087	788.79681	-401.41006	93.189453	1036.2537	-479.95532	333.99591	1038.3987	-480.09753	172.50012	1061.5397	-290.61938	256.52118	1059.4138	-290.48212	66.059502	649.74103	-353.19827	133.36293	697.27557	-469.4473	139.08215	582.81427	-434.10016	81.721107	508.91202	-325.84296				110.69382	244.55661	-255.90074	129.43011	400.35361	-353.2619	155.45302	188.29437	-289.86697	150.54703	86.599724	-229.01874				192.75331	68.464737	-162.48033	176.9485	51.079395	-319.54498	372.88434	631.21759	-549.23315	301.83868	748.65588	-604.56677	303.20401	668.02087	-634.03058	360.07724	531.72656	-577.27832				352.46988	251.47476	-559.75214	324.81696	458.03091	-635.87451	317.91623	252.55984	-616.40247	328.61423	112.18327	-563.79541				275.68341	72.398849	-517.65375	321.05954	69.520462	-670.4928	56.505833	1063.2902	-392.07693	362.14392	1061.4288	-348.79877
216	2.15	139.91637	1678.7361	-442.6123	255.87141	1683.906	-436.23651				265.44565	1691.1193	-581.60553	196.28209	1545.3262	-376.48462	201.11433	1312.4902	-300.80289	209.4473	1464.8029	-498.78821	218.14323	1272.255	-535.47467	280.23593	1438.2963	-310.41638	42.860031	1496.002	-459.12366	-49.149002	1217.8687	-508.30191	-57.40097	1140.5188	-528.6748	-47.753784	1035.8042	-597.85352	26.731371	941.87683	-706.04919	-11.545321	904.85034	-662.24261	6.1137624	867.37384	-761.97528	362.16434	1498.5276	-431.04675	458.35049	1244.064	-355.82184	472.52585	1164.2649	-331.50803	485.84665	1026.5463	-367.11551	458.00308	878.16608	-344.91644	439.9115	869.53644	-413.07596	473.37787	786.87262	-410.50772	92.569862	1034.9969	-491.57745	333.52567	1036.8693	-493.57498	173.57022	1059.6802	-302.89206	257.56357	1057.484	-303.3436	65.369164	649.70728	-359.73505	132.75424	695.99036	-477.08691	138.49043	581.64655	-440.48462	81.3172	509.05759	-330.77249				110.43053	245.34293	-257.87509	128.99556	400.13779	-356.99808	155.13632	188.69759	-291.36627	150.47652	87.549713	-229.51505				192.71841	70.007652	-162.92038	176.85583	51.268421	-319.67755	373.03629	628.56677	-560.74786	301.50128	745.53143	-616.3183	303.23624	664.96228	-644.99756	360.44623	529.25525	-590.85077				352.96417	247.8063	-589.73206	324.11905	458.13953	-652.51813	317.12781	252.14458	-645.13049	328.68423	108.77834	-601.86353				276.76199	66.670044	-556.74365	318.30511	71.948982	-710.94257	56.756989	1061.8899	-403.29272	362.7587	1059.5226	-362.3978
